<svg xmlns="http://www.w3.org/2000/svg" viewBox="0 0 82.5 49.1"><defs><style>.cls-1,.cls-2{fill:#fff;}.cls-1{opacity:0.8;}</style></defs><g id="Layer_2" data-name="Layer 2"><g id="OBJECTS"><path class="cls-1" d="M57.26,49.1H48L66.33,23.68H82.5L68.2,43.5A13.49,13.49,0,0,1,57.26,49.1Z"/><path class="cls-2" d="M58.33,0H49L74.41,34.73l8.09-11L69.21,5.52A13.48,13.48,0,0,0,58.33,0Z"/><path class="cls-1" d="M25.24,49.1h9.27L16.17,23.68H0L14.3,43.5A13.49,13.49,0,0,0,25.24,49.1Z"/><path class="cls-2" d="M24.17,0H33.5L8.09,34.73,0,23.68,13.29,5.52A13.48,13.48,0,0,1,24.17,0Z"/><path class="cls-2" d="M33.91,15.45h7.86c5.33,0,9,3,9,8s-3.66,8-9,8H33.91ZM41.54,27.2a3.51,3.51,0,0,0,3.8-3.78,3.5,3.5,0,0,0-3.8-3.78H39.29V27.2Z"/></g></g></svg>