<svg xmlns="http://www.w3.org/2000/svg" xmlns:xlink="http://www.w3.org/1999/xlink" viewBox="0 0 82.5 49.1"><defs><style>.cls-1{fill:url(#Nueva_muestra_de_degradado_2);}.cls-2{fill:url(#Nueva_muestra_de_degradado_2-2);}.cls-3{fill:url(#Nueva_muestra_de_degradado_2-3);}.cls-4{fill:url(#Nueva_muestra_de_degradado_2-4);}.cls-5{fill:url(#Nueva_muestra_de_degradado_2-5);}</style><linearGradient id="Nueva_muestra_de_degradado_2" x1="84.75" y1="10.75" x2="48.93" y2="57.54" gradientUnits="userSpaceOnUse"><stop offset="0" stop-color="#13338f"/><stop offset="0.6" stop-color="#7b20e7"/><stop offset="1" stop-color="#ffa3bf"/></linearGradient><linearGradient id="Nueva_muestra_de_degradado_2-2" x1="52.38" y1="-7.8" x2="80.69" y2="33.79" xlink:href="#Nueva_muestra_de_degradado_2"/><linearGradient id="Nueva_muestra_de_degradado_2-3" x1="186.94" y1="10.75" x2="151.13" y2="57.54" gradientTransform="matrix(-1, 0, 0, 1, 184.69, 0)" xlink:href="#Nueva_muestra_de_degradado_2"/><linearGradient id="Nueva_muestra_de_degradado_2-4" x1="154.58" y1="-7.8" x2="182.88" y2="33.79" gradientTransform="matrix(-1, 0, 0, 1, 184.69, 0)" xlink:href="#Nueva_muestra_de_degradado_2"/><linearGradient id="Nueva_muestra_de_degradado_2-5" x1="49.24" y1="11.57" x2="35.25" y2="30.3" xlink:href="#Nueva_muestra_de_degradado_2"/></defs><g id="Layer_2" data-name="Layer 2"><g id="OBJECTS"><path class="cls-1" d="M57.26,49.1H48L66.33,23.68H82.5L68.2,43.5A13.49,13.49,0,0,1,57.26,49.1Z"/><path class="cls-2" d="M58.33,0H49L74.41,34.73l8.09-11L69.21,5.52A13.48,13.48,0,0,0,58.33,0Z"/><path class="cls-3" d="M25.24,49.1h9.27L16.17,23.68H0L14.3,43.5A13.49,13.49,0,0,0,25.24,49.1Z"/><path class="cls-4" d="M24.17,0H33.5L8.09,34.73,0,23.68,13.29,5.52A13.48,13.48,0,0,1,24.17,0Z"/><path class="cls-5" d="M33.91,15.45h7.86c5.33,0,9,3,9,8s-3.66,8-9,8H33.91ZM41.54,27.2a3.51,3.51,0,0,0,3.8-3.78,3.5,3.5,0,0,0-3.8-3.78H39.29V27.2Z"/></g></g></svg>